<svg width="1920" height="1080" viewBox="0 0 1920 1080" fill="none" xmlns="http://www.w3.org/2000/svg">
<g clip-path="url(#clip0_9_121)">
<path d="M1920 0H0V1080H1920V0Z" fill="#EDEAEF"/>
<g filter="url(#filter0_f_9_121)">
<path d="M2212.69 240.051L1844.54 27.5C1818.24 12.3122 1775.58 12.3122 1749.28 27.5L663.63 654.3C637.324 669.488 637.324 694.112 663.63 709.3L1031.78 921.851C1058.08 937.039 1100.74 937.039 1127.04 921.851L2212.69 295.051C2239 279.863 2239 255.239 2212.69 240.051Z" fill="url(#paint0_linear_9_121)" fill-opacity="0.3"/>
</g>
<g filter="url(#filter1_f_9_121)">
<path d="M1106.69 190.051L738.543 -22.5C712.236 -37.6878 669.586 -37.6878 643.28 -22.5L-442.369 604.3C-468.675 619.488 -468.675 644.112 -442.369 659.3L-74.2202 871.851C-47.9141 887.039 -5.26348 887.039 21.0426 871.851L1106.69 245.051C1133 229.863 1133 205.239 1106.69 190.051Z" fill="url(#paint1_linear_9_121)" fill-opacity="0.3"/>
</g>
<path d="M1987.31 64.051L1619.16 -148.5C1592.86 -163.688 1550.2 -163.688 1523.9 -148.5L888.63 218.272C862.324 233.46 862.324 258.085 888.63 273.272L1256.78 485.823C1283.09 501.011 1325.74 501.011 1352.04 485.823L1987.31 119.051C2013.62 103.863 2013.62 79.2388 1987.31 64.051Z" fill="url(#paint2_linear_9_121)"/>
<path d="M1204.31 549.051L836.162 336.5C809.856 321.312 767.206 321.312 740.9 336.5L105.631 703.272C79.3253 718.46 79.3253 743.085 105.631 758.272L473.78 970.823C500.086 986.011 542.737 986.011 569.043 970.823L1204.31 604.051C1230.62 588.863 1230.62 564.239 1204.31 549.051Z" fill="url(#paint3_linear_9_121)"/>
<path d="M2260.31 576.051L1892.16 363.5C1865.86 348.312 1823.2 348.312 1796.9 363.5L1161.63 730.272C1135.32 745.46 1135.32 770.085 1161.63 785.272L1529.78 997.823C1556.09 1013.01 1598.74 1013.01 1625.04 997.823L2260.31 631.051C2286.62 615.863 2286.62 591.239 2260.31 576.051Z" fill="url(#paint4_linear_9_121)"/>
<path d="M1058.31 3.05099L690.162 -209.5C663.856 -224.688 621.206 -224.688 594.9 -209.5L-40.3686 157.272C-66.6747 172.46 -66.6747 197.085 -40.3686 212.272L327.78 424.823C354.086 440.011 396.737 440.011 423.043 424.823L1058.31 58.051C1084.62 42.8632 1084.62 18.2388 1058.31 3.05099Z" fill="url(#paint5_linear_9_121)"/>
<path d="M1653.25 320.136L1651.43 319.605C1651.2 320.668 1650.74 322.793 1650.52 323.831L1652.41 324.287C1652.62 323.249 1653.02 321.174 1653.25 320.136Z" fill="white"/>
<path d="M1693.49 904.999C1691.49 905.1 1687.51 905.277 1685.51 905.353C1684.98 911.477 1686.17 917.019 1692.88 918.562C1693.13 914.033 1693.31 909.528 1693.49 904.999Z" fill="#EEEEEE"/>
<path d="M1583.38 146.059C1579.36 137.709 1569.89 133.963 1561.42 131.914C1551.47 130.826 1550.53 143.757 1549.55 150.842C1546.56 194.089 1570.02 233.693 1597.58 265.072C1598.49 279.268 1597.8 293.54 1598.99 307.737C1600.79 320.693 1592.87 332.055 1589.96 344.303C1593.12 346.201 1600.18 345.341 1599.35 350.706C1599.25 364.244 1600.21 377.782 1600.18 391.321C1592.14 392.105 1585.03 395.471 1578.83 400.557C1578.7 399.697 1578.45 397.976 1578.34 397.116L1582.65 397.9C1582.65 395.572 1582.62 393.244 1582.55 390.941C1566.43 384.21 1549.72 371.405 1531.4 377.403C1513.49 386.386 1500.43 402.278 1487.75 417.36C1487.14 415.209 1485.98 410.907 1485.4 408.782C1477.91 416.804 1470.75 425.205 1465.18 434.72C1469.71 443.172 1475.5 450.84 1481.96 457.875C1465.81 480.523 1461.13 508.612 1457.59 535.563C1434.99 537.41 1412.44 539.966 1389.77 541.104C1379.11 542.471 1373.77 531.185 1366.01 526.073C1357.35 517.874 1342.17 518.836 1334.42 527.718C1325.24 525.213 1316.15 521.999 1306.69 520.809C1294.9 521.417 1283.1 521.164 1271.31 520.86C1262.25 528.477 1271.41 541.105 1280.37 543.787C1294.21 547.659 1308.74 544.774 1322.89 545.988C1318.18 551.429 1313.29 556.718 1308.44 562.057C1305.45 569.953 1312.61 575.444 1317.6 580.353C1314.81 588.78 1321.87 595.258 1328.91 598.27C1337.71 603.989 1350.14 602.749 1357.43 595.056C1365.73 598.498 1374.94 597.688 1382.4 592.703C1405.94 604.874 1428.64 620.21 1455.23 624.79C1476.72 628.712 1501.26 629.674 1519.41 615.452C1541.53 651.766 1566.3 686.384 1593.22 719.281C1609.57 740.133 1626.86 760.276 1645.25 779.356C1634.32 803.574 1621.16 827.563 1617.67 854.311C1614.99 880.098 1622.86 905.226 1629.49 929.798C1625.11 931.063 1620.68 932.227 1616.3 933.543C1616.58 935.441 1617.11 939.237 1617.39 941.135C1593.58 937.44 1576.67 959.127 1569.08 978.891C1593.48 981.421 1618.07 980.08 1642.52 980.105C1649.43 976.588 1653.4 968.92 1660.51 965.403C1661.32 970.616 1661.88 975.905 1662.66 981.143C1672.2 980.029 1681.79 980.485 1691.33 979.827C1688.2 970.211 1685.56 960.443 1682.78 950.725C1686.32 950.979 1689.87 951.232 1693.41 951.51C1693.03 942.906 1693.11 934.302 1692.8 925.724C1687.61 925.825 1682.43 926.179 1677.21 926.508C1678.07 895.483 1679.72 860.688 1701.23 836.167C1712.24 843.05 1721.12 852.995 1726.91 864.661C1735.57 883.413 1741.57 903.278 1745.67 923.522C1741.01 923.471 1736.35 923.117 1731.72 923.573C1731.72 932.278 1732.61 940.983 1733.67 949.612C1736.68 949.637 1739.69 949.637 1742.7 949.587C1739.26 960.24 1736.5 971.071 1734.43 982.079C1745.26 981.725 1756.09 981.877 1766.87 980.586C1767.07 977.524 1767.3 974.513 1767.53 971.476C1772.11 974.74 1776.08 978.891 1781.02 981.624C1807.99 982.484 1834.99 981.598 1861.79 978.056C1861.74 971.881 1862.27 965.681 1861.41 959.557C1854.55 948.777 1844.1 940.3 1832.34 935.441C1821.83 932.303 1811.59 937.465 1802 941.16C1801.89 936.782 1801.77 932.404 1801.57 928.026C1798.55 927.47 1795.54 926.913 1792.51 926.356C1795.72 904.138 1799.77 882.021 1801.67 859.676C1801.87 829.385 1806.02 798.158 1797.49 768.601C1794.1 756.505 1787.8 745.067 1778.03 736.97C1773.73 732.794 1767.73 729.935 1765.56 723.962C1759.48 709.488 1756.82 693.874 1754.9 678.387C1763.2 677.071 1771.63 677.274 1779.98 677.476C1787.17 670.871 1787.17 660.496 1791.72 652.373C1803.18 629.547 1820.85 610.265 1830.24 586.3C1833.35 588.274 1836.49 590.248 1839.62 592.196C1845.72 581.062 1851.77 569.852 1856.55 558.085C1853.01 556.111 1849.16 554.769 1845.57 552.846C1859.08 520.911 1865.36 484.268 1854.1 450.662C1851.8 442.337 1845.72 435.15 1837.7 431.86C1826.74 426.445 1814.22 426.799 1802.3 427.179C1780.36 409.263 1753.03 399.798 1726.28 391.625C1722.99 390.891 1721.7 387.323 1719.85 384.919C1712.74 373.405 1705.96 361.638 1698.09 350.604C1708.82 333.953 1717.96 316.315 1725.83 298.146C1731.49 284.531 1737.44 269.829 1735.26 254.873C1733.34 241.613 1721.9 233.693 1713.25 224.76C1695.99 209.323 1676.56 195.051 1653.55 189.762C1681.72 202.137 1705.71 222.153 1726.58 244.447C1728.23 246.219 1729.57 248.167 1730.66 250.293C1734.05 265.729 1728.38 281.166 1722.59 295.286C1721.57 297.943 1720.49 300.55 1719.32 303.156C1713.02 318.238 1705.96 333.118 1696.45 346.479C1693.51 345.568 1690.57 344.683 1687.61 343.797C1685.03 342.987 1682.45 342.203 1679.87 341.418C1683.16 331.726 1683.39 317.581 1670.96 314.797C1661.95 316.771 1652.72 317.935 1643.61 315.834C1643.2 314.67 1642.39 312.342 1641.99 311.178C1640.24 305.611 1637.46 300.449 1634.52 295.438C1640.67 290.149 1646.06 284.076 1650.74 277.471C1649.05 270.993 1646.9 264.565 1643.43 258.77L1643.91 260.947C1644.9 266.16 1647.18 271.246 1646.92 276.661C1643.78 284.506 1636.65 289.719 1630.9 295.565C1633.54 299.057 1636.19 302.524 1638.88 305.965C1638.95 309.23 1639 312.494 1639.05 315.759C1626.58 315.354 1614.15 314.063 1601.78 312.469C1601.83 296.526 1602.03 280.584 1601.37 264.641C1578.45 239.083 1561.26 208.058 1554.76 174.174C1553.65 161.268 1549.34 144.845 1559.06 134.318C1568.5 134.318 1576.19 140.72 1583.38 146.059ZM1672.18 340.178C1667.12 342.152 1661.7 339.647 1656.61 339.014C1662.44 345.644 1671.44 344.911 1678.93 341.773C1685.01 344.986 1691.99 347.39 1696.02 353.337C1711.2 373.632 1721.88 396.736 1733.19 419.284C1729.7 424.674 1726.15 430.418 1720.38 433.632C1701.1 445.298 1677.42 447.474 1655.45 444.589C1641.13 441.628 1625.67 439.123 1614.13 429.406C1619.06 417.36 1625.97 406.251 1630.83 394.155C1636.12 393.345 1641.43 392.662 1646.72 392.029C1646.72 391.625 1646.72 390.84 1646.7 390.435C1632.42 391.296 1618.1 391.523 1603.8 391.447C1601.83 376.062 1601.7 360.549 1600.92 345.113C1598.87 344.607 1594.82 343.595 1592.77 343.089C1594.62 336.028 1597.17 329.145 1599.73 322.313C1601.88 329.17 1603.6 336.383 1608.38 342C1615.09 335.851 1615.62 326.513 1616.56 318.036C1623.72 317.985 1630.88 317.682 1638.04 317.758C1635.13 327.602 1629.99 336.484 1625.56 345.695C1629.03 345.239 1632.63 344.784 1634.8 341.595L1631.49 341.393C1634.85 335.421 1636.98 328.715 1641.08 323.173C1637.66 319.656 1646.47 315.43 1646.54 320.592C1647.76 320.339 1650.19 319.858 1651.43 319.605L1653.25 320.136C1653.02 321.174 1652.62 323.249 1652.41 324.287L1650.52 323.831C1650.52 330.309 1647.45 336.18 1645.61 342.253C1641.58 342.557 1637.59 342.76 1633.59 343.063L1633.26 345.568C1638.09 345.493 1642.92 345.467 1647.73 345.442C1650.44 337.496 1653.27 329.601 1656.49 321.857C1661.14 320.364 1665.6 317.201 1670.63 317.631C1679.95 321.022 1680.3 335.37 1672.18 340.178ZM1611.37 425.939C1608.46 428.647 1603.8 424.471 1605.07 421.131C1605.4 420.777 1606.05 420.119 1606.38 419.79C1609.75 418.474 1613.7 422.877 1611.37 425.939ZM1495.06 430.747C1500.63 443.374 1510.3 453.699 1521.23 461.898C1530.52 452.687 1538.84 442.185 1550.18 435.327C1547.95 445.323 1538.44 450.789 1532.44 458.381C1524.95 465.238 1519.89 476.601 1508.5 477.385C1511.46 473.691 1514.57 470.122 1517.71 466.554C1502.12 454.155 1488.99 437.504 1485.04 417.588C1489.57 420.979 1492.94 425.534 1495.06 430.747ZM1798.22 429.052C1790.33 431.835 1781.83 432.012 1773.63 433.353C1778.21 424.269 1790.41 425.787 1798.22 429.052ZM1506.88 480.65L1506.76 481.282C1497.57 496.668 1487.19 512.307 1485.55 530.679C1483.58 542.319 1489.04 553.15 1493.57 563.475C1500.33 577.873 1506.86 592.399 1514.4 606.443C1515.31 608.822 1516.22 611.226 1517.11 613.656C1508.7 617.502 1500.18 621.88 1490.71 622.285C1473.17 622.841 1455.08 622.285 1438.66 615.478C1419.68 610.771 1402.57 600.218 1385.72 590.577C1385.74 588.831 1385.85 585.313 1385.87 583.567C1379.7 591.766 1368.84 597.004 1358.87 592.298C1359.12 583.947 1358.87 575.571 1357.25 567.346C1364.34 573.394 1374.13 576.836 1382.94 572.483C1372.81 572.256 1363.2 569.143 1355.07 563.044C1357.2 557.933 1361.02 552.821 1359.58 547.001C1355.81 552.846 1354.06 561.197 1346.93 564.006C1340.95 566.334 1332.37 566.941 1328.88 560.311C1330.1 555.301 1333.31 551.151 1336.02 546.925L1337.28 546.115C1340.45 539.586 1341.08 532.501 1339.66 525.44C1347.91 523.391 1357.33 522.277 1363.8 529.059C1370.79 534.323 1376.36 542.927 1385.74 543.787C1404.34 544.749 1422.89 542.496 1441.39 540.902C1450.96 540.523 1461.36 538.7 1470.01 543.939C1478.11 547.279 1483.09 554.618 1488.69 560.919C1484.66 547.76 1471.88 541.079 1460.27 535.74C1465.79 510.206 1468.97 483.104 1483.65 460.785C1490.94 467.946 1499.44 473.665 1506.88 480.65ZM1760.92 485.711C1756.07 499.224 1746.2 510.232 1741.31 523.77C1761.71 527.237 1782.16 530.729 1802 536.803C1816.19 541.383 1831.43 544.622 1843.19 554.39C1835.83 556.541 1829.55 550.898 1822.72 549.177C1791.42 539.08 1759.2 531.083 1726.46 527.541C1723.5 532.855 1720.46 538.169 1716.92 543.129C1717.6 535.613 1720.74 528.73 1723.47 521.822C1727.67 522.1 1731.9 522.378 1736.1 522.631C1742.55 509.27 1749.69 495.706 1760.92 485.711ZM1326.12 529.489C1329.95 529.616 1333.74 530.071 1337.54 530.375C1337.46 536.322 1335.31 541.864 1332.1 546.824C1328.48 545.179 1324.83 543.559 1321.16 541.99L1321.72 541.383C1308.11 541.18 1294.34 542.648 1280.83 540.396C1273.69 538.549 1269.34 531.514 1269.26 524.378C1288.24 525.364 1308.26 521.366 1326.12 529.489ZM1750.37 551.429C1776.46 560.463 1802.45 570.282 1826.34 584.276C1817.96 613.985 1791.77 634.684 1784.1 664.646C1782.81 667.885 1781.98 673.63 1777.12 672.795C1760.95 671.58 1745.51 676.59 1730.2 680.994C1700.29 690.078 1669.07 680.968 1640.24 672.162C1628.85 667.531 1616.15 672.567 1604.69 668.138C1599.5 666.24 1592.59 663.811 1591.71 657.485C1589.91 648.603 1585.94 640.252 1579.36 633.9C1578.83 627.801 1580.22 620.564 1575.23 615.882C1566.07 606.57 1553.6 601.711 1541.9 596.372L1541.93 596.22C1538.13 594.752 1535.7 592.171 1534.67 588.426C1541.9 584.023 1550.81 584.175 1558.73 586.326C1570.65 590.779 1580.98 598.447 1592.72 603.28C1598.79 606.064 1605.52 608.847 1612.28 606.798C1621.11 600.573 1616 585.111 1626.91 580.556C1632.83 577.798 1642.01 573.572 1647.18 579.392C1645.38 590.83 1634.85 598.017 1631.06 608.645C1635.66 614.541 1638.62 621.424 1639.61 628.839C1641.94 626.41 1644.39 623.955 1648.01 623.879C1670.23 619.653 1691.36 610.771 1713.78 607.633C1722.43 606.013 1730.71 609.505 1739.11 610.847C1732.46 608.139 1725.52 606.089 1718.61 604.065C1716.54 584.073 1720.59 563.829 1729.57 545.913C1736.63 547.178 1743.59 549.05 1750.37 551.429ZM1329.82 548.114C1328.71 553.454 1323.77 561.02 1329.62 565.373C1336.37 569.573 1344.5 567.195 1351.63 565.575C1355.07 567.144 1355.76 569.396 1353.66 572.332C1348.8 579.113 1341 588.527 1331.57 583.896C1323.42 580.126 1313.75 575.09 1310.92 565.98C1315.14 558.312 1321.44 551.227 1329.82 548.114ZM1356.19 575.874C1356.14 581.619 1357.78 588.451 1353.56 593.183C1342.88 603.66 1321.49 596.195 1319.04 581.695C1326.53 584.175 1333.46 591.083 1341.81 589.059C1347.36 585.592 1351.05 579.898 1356.19 575.874ZM1794.94 773.663C1802.27 803.675 1796.63 834.497 1796.45 864.889C1796.33 885.589 1791.14 905.783 1788.81 926.28C1775.53 926.154 1762.32 924.484 1749.08 923.345C1744.22 900.494 1737.97 877.517 1726.43 857.044C1717.02 839.685 1698.55 826.981 1678.55 826.374C1685.03 828.905 1691.49 831.486 1697.89 834.143C1678.1 860.132 1671.67 894.395 1674.35 926.432C1660.94 929.241 1647.25 929.519 1633.61 930.253C1626.48 904.087 1616.63 877.086 1621.9 849.604C1626.73 825.944 1636.85 803.801 1647 782.039C1666.99 790.997 1690.57 791.123 1710.9 783.076C1735.42 774.32 1754.95 754.785 1767.15 732.136C1781.5 741.55 1791.9 756.708 1794.94 773.663ZM1798.1 929.874C1798.68 933.872 1799.21 937.82 1799.72 941.843C1778.99 944.197 1758.12 944.829 1737.26 945.032C1736.58 938.958 1735.87 932.91 1735.24 926.837C1756.24 926.584 1777.2 928.431 1798.1 929.874ZM1689.26 928.254C1689.92 934.834 1689.92 941.438 1689.64 948.068C1666.76 945.133 1643.84 943.007 1620.81 941.565C1620.58 940.072 1620.15 937.111 1619.92 935.618C1642.8 931.316 1666.1 930.127 1689.26 928.254ZM1800.53 944.171C1793.95 950.017 1785.62 953.838 1776.89 955.053C1782.16 947.335 1791.57 944.348 1800.53 944.171ZM1645.23 949.131C1644.59 949.992 1643.3 951.687 1642.65 952.547C1637.08 950.472 1630.4 949.663 1626.91 944.197C1633.36 944.348 1639.43 946.474 1645.23 949.131Z" fill="#010001" fill-opacity="0.87"/>
<path d="M1631.41 173.516C1624.55 161.47 1611.67 152.006 1597.73 150.513C1596.11 152.285 1594.54 154.132 1593.02 156.004C1588.69 173.87 1593.35 192.217 1597.96 209.526C1600.61 219.977 1605.7 229.568 1611.75 238.425C1610.94 235.742 1610.08 233.085 1609.19 230.403C1600.94 212.158 1597.48 192.293 1595.05 172.529C1592.9 165.772 1596.54 159.573 1599.53 153.778C1611.98 156.966 1621.79 165.494 1631.41 173.516Z" fill="#010001" fill-opacity="0.87"/>
<path d="M1638.93 178.375C1636.98 178.78 1633.08 179.64 1631.16 180.07L1630.68 181.133C1626.8 187.763 1626.37 195.431 1627.24 202.896C1630.17 216.409 1633.81 229.745 1637.28 243.132C1638.37 245.08 1640.52 248.977 1641.61 250.951C1639.91 240.829 1637.08 230.985 1635.21 220.913C1633.26 212.613 1631.79 204.237 1630.78 195.785C1628.04 188.32 1633.92 182.854 1638.93 178.375Z" fill="#010001" fill-opacity="0.87"/>
<path d="M1583.38 146.06C1576.19 140.72 1568.5 134.318 1559.06 134.318C1549.34 144.845 1553.65 161.268 1554.76 174.174C1561.26 208.058 1578.45 239.083 1601.37 264.641C1615.47 262.718 1629.56 259.479 1643.91 260.947L1643.43 258.771C1646.9 264.566 1649.05 270.993 1650.74 277.471C1646.06 284.076 1640.67 290.149 1634.52 295.438C1637.46 300.449 1640.24 305.611 1641.99 311.178C1651.6 312.747 1661.4 312.924 1670.96 314.797C1683.39 317.581 1683.16 331.726 1679.87 341.419C1682.45 342.203 1685.03 342.987 1687.61 343.797C1705.45 336.459 1705.3 314.24 1719.32 303.157C1720.49 300.55 1721.57 297.944 1722.59 295.287C1722.11 279.825 1728.03 265.299 1730.66 250.293C1729.57 248.168 1728.23 246.219 1726.58 244.448C1705.71 222.153 1681.72 202.137 1653.55 189.762C1648.52 186.194 1643.78 182.196 1638.93 178.375C1633.92 182.854 1628.04 188.32 1630.78 195.785L1631.94 199.201C1634.65 206.11 1635.41 213.55 1635.21 220.913C1637.08 230.985 1639.91 240.829 1641.61 250.951C1640.52 248.977 1638.37 245.08 1637.28 243.132C1630.7 230.808 1627.54 216.814 1627.24 202.896C1626.37 195.431 1626.8 187.763 1630.68 181.133C1630.85 179.235 1631.23 175.414 1631.41 173.516C1621.79 165.494 1611.98 156.966 1599.53 153.778C1596.54 159.573 1592.9 165.773 1595.05 172.529C1595.55 173.567 1596.56 175.617 1597.1 176.629C1599.91 187.333 1600.23 198.569 1603.9 209.07C1606.28 216.03 1607.9 223.191 1609.19 230.403C1610.08 233.085 1610.94 235.743 1611.75 238.425C1605.7 229.568 1600.61 219.977 1597.96 209.526C1593.35 192.217 1588.69 173.87 1593.02 156.005C1589.88 152.614 1586.75 149.223 1583.38 146.06Z" fill="#FFDE31"/>
<path d="M1651.43 319.605C1650.19 319.858 1647.76 320.339 1646.54 320.592C1645.18 321.25 1642.44 322.515 1641.08 323.173C1636.98 328.715 1634.85 335.421 1631.49 341.393L1634.8 341.596C1638.42 341.798 1642.01 342.026 1645.61 342.254C1647.45 336.18 1650.52 330.309 1650.52 323.831C1650.74 322.794 1651.2 320.668 1651.43 319.605Z" fill="#FFDE31"/>
<path d="M1597.1 176.629C1596.56 175.616 1595.55 173.567 1595.05 172.529C1597.48 192.293 1600.94 212.158 1609.19 230.403C1607.9 223.191 1606.28 216.029 1603.9 209.07C1600.23 198.568 1599.91 187.333 1597.1 176.629Z" fill="#FFDBA3"/>
<path d="M1631.94 199.201L1630.78 195.785C1631.79 204.237 1633.26 212.613 1635.21 220.913C1635.41 213.549 1634.65 206.11 1631.94 199.201Z" fill="#FFDBA3"/>
<path d="M1627.24 202.896C1627.54 216.814 1630.7 230.808 1637.28 243.132C1633.81 229.745 1630.17 216.409 1627.24 202.896Z" fill="#FFDBA3"/>
<path d="M1643.91 260.947C1629.56 259.479 1615.47 262.718 1601.37 264.641C1602.03 280.584 1601.83 296.526 1601.78 312.469C1614.15 314.063 1626.58 315.354 1639.05 315.758C1639 312.494 1638.95 309.23 1638.88 305.965C1636.19 302.524 1633.54 299.057 1630.9 295.565C1636.65 289.719 1643.79 284.506 1646.92 276.661C1647.18 271.246 1644.9 266.16 1643.91 260.947Z" fill="#FFDBA3"/>
<path d="M1672.18 340.178C1680.3 335.37 1679.95 321.022 1670.63 317.631C1665.6 317.201 1661.14 320.364 1656.49 321.857C1653.27 329.601 1650.44 337.496 1647.73 345.442C1642.92 345.467 1638.09 345.493 1633.26 345.568L1633.59 343.063C1637.59 342.76 1641.58 342.557 1645.61 342.253C1642.01 342.026 1638.42 341.798 1634.8 341.596C1632.63 344.784 1629.03 345.24 1625.57 345.695C1629.99 336.484 1635.13 327.602 1638.04 317.758C1630.88 317.682 1623.72 317.985 1616.56 318.036C1615.62 326.513 1615.09 335.851 1608.38 342C1603.6 336.383 1601.88 329.17 1599.73 322.313C1597.17 329.145 1594.62 336.028 1592.77 343.089C1594.82 343.595 1598.87 344.607 1600.92 345.113C1601.7 360.549 1601.83 376.062 1603.8 391.447C1618.1 391.523 1632.42 391.296 1646.7 390.435C1646.72 390.84 1646.72 391.625 1646.72 392.029C1641.43 392.662 1636.12 393.345 1630.83 394.155C1625.97 406.251 1619.06 417.36 1614.13 429.406C1625.67 439.123 1641.13 441.628 1655.45 444.589C1677.42 447.474 1701.1 445.298 1720.39 433.632C1726.15 430.418 1729.7 424.674 1733.19 419.284C1721.88 396.736 1711.2 373.632 1696.02 353.337C1691.99 347.39 1685.01 344.986 1678.93 341.773C1671.44 344.911 1662.44 345.644 1656.62 339.014C1661.7 339.647 1667.12 342.152 1672.18 340.178Z" fill="#FFDBA3"/>
<path d="M1606.38 419.79C1606.05 420.119 1605.4 420.776 1605.07 421.131C1605.4 420.776 1606.05 420.119 1606.38 419.79Z" fill="#FFDBA3"/>
<path d="M1506.88 480.65C1499.44 473.665 1490.94 467.946 1483.65 460.785C1468.97 483.104 1465.79 510.206 1460.27 535.74C1471.88 541.079 1484.66 547.76 1488.69 560.919C1483.09 554.618 1478.11 547.279 1470.01 543.939C1461.36 538.7 1450.96 540.522 1441.39 540.902C1422.89 542.496 1404.34 544.749 1385.74 543.787C1376.36 542.927 1370.79 534.323 1363.8 529.059C1357.66 528.705 1351.51 528.528 1345.36 528.224C1343.66 534.525 1344.95 543.509 1337.28 546.115L1336.02 546.925C1333.31 551.151 1330.1 555.301 1328.88 560.311C1332.37 566.941 1340.95 566.334 1346.93 564.006C1354.06 561.197 1355.81 552.846 1359.58 547.001C1361.02 552.821 1357.2 557.933 1355.07 563.044C1363.2 569.143 1372.81 572.256 1382.94 572.483C1374.13 576.836 1364.34 573.394 1357.25 567.346C1358.87 575.571 1359.12 583.947 1358.87 592.298C1368.84 597.004 1379.7 591.766 1385.87 583.567C1385.85 585.313 1385.74 588.831 1385.72 590.577C1402.57 600.218 1419.68 610.771 1438.66 615.477C1458.17 614.06 1477.45 622.183 1496.91 617.73C1504.02 616.388 1509.29 611.125 1514.4 606.443C1506.86 592.399 1500.33 577.873 1493.57 563.475C1489.04 553.15 1483.58 542.319 1485.55 530.679C1487.19 512.307 1497.57 496.668 1506.76 481.282L1506.12 481.181C1506.33 481.054 1506.68 480.776 1506.88 480.65Z" fill="#FFDBA3"/>
<path d="M1337.54 530.375C1333.74 530.071 1329.95 529.616 1326.12 529.489C1308.16 530.097 1290.22 526.731 1272.27 529.211C1276.47 532.349 1280.35 536.701 1285.79 537.435C1298.52 539.156 1311.42 538.144 1324.2 538.65C1323.59 539.333 1322.33 540.7 1321.72 541.383L1321.16 541.99C1324.83 543.559 1328.48 545.179 1332.1 546.823C1335.31 541.864 1337.46 536.322 1337.54 530.375Z" fill="#FFDBA3"/>
<path d="M1750.37 551.429C1743.59 549.05 1736.63 547.178 1729.57 545.913C1720.59 563.829 1716.54 584.073 1718.61 604.065C1725.52 606.089 1732.46 608.139 1739.11 610.847C1730.71 609.505 1722.43 606.013 1713.78 607.633C1691.36 610.771 1670.23 619.653 1648.01 623.879C1644.39 623.955 1641.94 626.41 1639.61 628.839C1638.62 621.424 1635.66 614.541 1631.06 608.645C1634.85 598.017 1645.38 590.83 1647.18 579.392C1642.01 573.572 1632.83 577.798 1626.91 580.556C1616 585.111 1621.11 600.573 1612.28 606.798C1605.52 608.848 1598.79 606.064 1592.72 603.28C1580.98 598.447 1570.65 590.779 1558.73 586.326C1563.69 589.438 1568.35 592.956 1573.06 596.397C1563.31 592.652 1553.37 589.21 1542.84 588.654C1542.56 591.184 1542.23 593.689 1541.93 596.22L1541.9 596.372C1553.6 601.711 1566.07 606.57 1575.23 615.882C1580.22 620.564 1578.83 627.801 1579.36 633.9C1585.94 640.252 1589.91 648.603 1591.71 657.485C1592.59 663.811 1599.5 666.241 1604.69 668.138C1616.15 672.567 1628.85 667.531 1640.24 672.162C1669.07 680.968 1700.29 690.078 1730.2 680.994C1745.51 676.59 1760.95 671.58 1777.12 672.795C1781.98 673.63 1782.81 667.885 1784.1 664.646C1791.77 634.684 1817.96 613.985 1826.34 584.276C1802.45 570.282 1776.46 560.463 1750.37 551.429Z" fill="#FFDBA3"/>
<path d="M1329.82 548.114C1321.44 551.227 1315.14 558.312 1310.92 565.98C1313.75 575.09 1323.42 580.126 1331.57 583.896C1341 588.527 1348.8 579.113 1353.66 572.331C1355.76 569.396 1355.07 567.144 1351.63 565.575C1344.5 567.194 1336.37 569.573 1329.62 565.372C1323.77 561.02 1328.71 553.453 1329.82 548.114Z" fill="#FFDBA3"/>
<path d="M1722.59 295.287C1728.38 281.166 1734.05 265.73 1730.66 250.293C1728.03 265.299 1722.11 279.825 1722.59 295.287Z" fill="#F9E852"/>
<path d="M1719.32 303.156C1705.3 314.24 1705.45 336.459 1687.61 343.797C1690.58 344.683 1693.51 345.569 1696.45 346.48C1705.96 333.118 1713.02 318.239 1719.32 303.156Z" fill="#FAE74D"/>
<path d="M1670.96 314.797C1661.4 312.924 1651.6 312.747 1641.99 311.178C1642.39 312.342 1643.2 314.67 1643.61 315.834C1652.72 317.935 1661.95 316.771 1670.96 314.797Z" fill="#F4E159"/>
<path d="M1646.54 320.592C1646.47 315.43 1637.66 319.656 1641.08 323.173C1642.44 322.515 1645.18 321.25 1646.54 320.592Z" fill="#D9BD5D"/>
<path d="M1611.37 425.939C1613.7 422.877 1609.75 418.474 1606.38 419.79C1606.05 420.119 1605.4 420.777 1605.07 421.131C1603.8 424.471 1608.46 428.647 1611.37 425.939Z" fill="#4177FB"/>
<path d="M1495.06 430.747C1492.94 425.534 1489.57 420.979 1485.04 417.588C1488.99 437.504 1502.12 454.155 1517.71 466.554C1514.58 470.122 1511.46 473.691 1508.5 477.385C1519.89 476.601 1524.95 465.239 1532.44 458.381C1538.44 450.789 1547.95 445.323 1550.18 435.327C1538.84 442.185 1530.52 452.687 1521.23 461.898C1510.3 453.699 1500.63 443.375 1495.06 430.747Z" fill="#4177FB"/>
<path d="M1798.23 429.051C1790.41 425.787 1778.21 424.269 1773.63 433.353C1781.83 432.012 1790.33 431.835 1798.23 429.051Z" fill="#4177FB"/>
<path d="M1794.94 773.663C1791.9 756.708 1781.5 741.55 1767.15 732.136C1754.95 754.785 1735.42 774.321 1710.9 783.076C1690.58 791.123 1666.99 790.997 1647 782.039C1636.85 803.802 1626.73 825.944 1621.9 849.605C1616.63 877.086 1626.48 904.087 1633.61 930.253C1647.25 929.52 1660.94 929.241 1674.35 926.432C1671.67 894.395 1678.1 860.132 1697.89 834.143C1691.49 831.486 1685.03 828.905 1678.56 826.374C1698.55 826.981 1717.02 839.685 1726.43 857.044C1737.97 877.517 1744.22 900.494 1749.08 923.345C1762.32 924.484 1775.53 926.154 1788.81 926.28C1791.14 905.783 1796.33 885.589 1796.45 864.889C1796.63 834.497 1802.27 803.675 1794.94 773.663Z" fill="#4177FB"/>
<path d="M1798.1 929.874C1777.2 928.431 1756.24 926.584 1735.24 926.837C1735.87 932.91 1736.58 938.959 1737.26 945.032C1758.12 944.829 1778.99 944.197 1799.72 941.843C1799.21 937.82 1798.68 933.872 1798.1 929.874Z" fill="#4177FB"/>
<path d="M1689.26 928.254C1666.1 930.127 1642.8 931.316 1619.92 935.618C1620.15 937.111 1620.58 940.072 1620.81 941.565C1643.84 943.007 1666.76 945.133 1689.64 948.069C1689.92 941.439 1689.92 934.834 1689.26 928.254Z" fill="#4177FB"/>
<path d="M1800.53 944.171C1791.57 944.349 1782.16 947.335 1776.89 955.053C1785.62 953.838 1793.95 950.017 1800.53 944.171Z" fill="#4177FB"/>
<path d="M1506.88 480.65C1506.68 480.776 1506.33 481.055 1506.12 481.181L1506.76 481.282L1506.88 480.65Z" fill="#F8F8F8"/>
<path d="M1760.92 485.711C1749.69 495.706 1742.55 509.27 1736.1 522.632C1731.9 522.378 1727.67 522.1 1723.47 521.822C1720.74 528.73 1717.6 535.613 1716.92 543.129C1720.46 538.169 1723.5 532.855 1726.46 527.541C1759.2 531.084 1791.42 539.08 1822.72 549.177C1829.55 550.898 1835.83 556.541 1843.19 554.39C1831.43 544.622 1816.19 541.383 1802 536.803C1782.16 530.729 1761.71 527.237 1741.31 523.77C1746.2 510.232 1756.07 499.224 1760.92 485.711Z" fill="#5589F7"/>
<path d="M1363.8 529.059C1357.33 522.277 1347.91 523.391 1339.66 525.441C1341.08 532.501 1340.45 539.586 1337.28 546.115C1344.95 543.509 1343.66 534.525 1345.36 528.224C1351.51 528.528 1357.66 528.705 1363.8 529.059Z" fill="#FFEEBA"/>
<path d="M1326.12 529.489C1308.26 521.366 1288.24 525.365 1269.26 524.378C1269.34 531.514 1273.69 538.549 1280.83 540.396C1294.34 542.648 1308.11 541.181 1321.72 541.383C1322.33 540.7 1323.59 539.333 1324.2 538.65C1311.42 538.144 1298.52 539.156 1285.79 537.435C1280.35 536.701 1276.47 532.349 1272.27 529.211C1290.22 526.731 1308.16 530.097 1326.12 529.489Z" fill="#FFEFBB"/>
<path d="M1356.19 575.875C1351.05 579.898 1347.36 585.592 1341.81 589.059C1333.46 591.083 1326.53 584.175 1319.04 581.695C1321.49 596.195 1342.88 603.66 1353.56 593.184C1357.78 588.451 1356.14 581.619 1356.19 575.875Z" fill="#FFE8B2"/>
<path d="M1558.73 586.326C1550.81 584.175 1541.91 584.023 1534.67 588.426C1535.71 592.171 1538.13 594.752 1541.93 596.22C1542.23 593.689 1542.56 591.184 1542.84 588.654C1553.37 589.21 1563.31 592.652 1573.06 596.397C1568.35 592.956 1563.69 589.438 1558.73 586.326Z" fill="#FDECBA"/>
<path d="M1514.4 606.444C1509.29 611.125 1504.02 616.389 1496.91 617.73C1477.45 622.184 1458.17 614.061 1438.66 615.478C1455.08 622.285 1473.18 622.842 1490.71 622.285C1500.18 621.88 1508.7 617.502 1517.11 613.656C1516.22 611.226 1515.31 608.822 1514.4 606.444Z" fill="#F3E1B0"/>
<path d="M1645.23 949.131C1639.43 946.474 1633.36 944.349 1626.91 944.197C1630.4 949.663 1637.08 950.473 1642.65 952.548C1643.3 951.687 1644.59 949.992 1645.23 949.131Z" fill="#4464A9"/>
</g>
<defs>
<filter id="filter0_f_9_121" x="393.9" y="-233.891" width="2088.52" height="1417.13" filterUnits="userSpaceOnUse" color-interpolation-filters="sRGB">
<feFlood flood-opacity="0" result="BackgroundImageFix"/>
<feBlend mode="normal" in="SourceGraphic" in2="BackgroundImageFix" result="shape"/>
<feGaussianBlur stdDeviation="125" result="effect1_foregroundBlur_9_121"/>
</filter>
<filter id="filter1_f_9_121" x="-712.099" y="-283.891" width="2088.52" height="1417.13" filterUnits="userSpaceOnUse" color-interpolation-filters="sRGB">
<feFlood flood-opacity="0" result="BackgroundImageFix"/>
<feBlend mode="normal" in="SourceGraphic" in2="BackgroundImageFix" result="shape"/>
<feGaussianBlur stdDeviation="125" result="effect1_foregroundBlur_9_121"/>
</filter>
<linearGradient id="paint0_linear_9_121" x1="2260.32" y1="267.551" x2="1413.04" y2="-372.802" gradientUnits="userSpaceOnUse">
<stop stop-color="#F37121"/>
<stop offset="1" stop-color="#02A1E2"/>
</linearGradient>
<linearGradient id="paint1_linear_9_121" x1="1154.32" y1="217.551" x2="307.045" y2="-422.802" gradientUnits="userSpaceOnUse">
<stop stop-color="#F37121"/>
<stop offset="1" stop-color="#02A1E2"/>
</linearGradient>
<linearGradient id="paint2_linear_9_121" x1="1803.24" y1="-42.2245" x2="1437.97" y2="590.434" gradientUnits="userSpaceOnUse">
<stop stop-color="#F6F3F7"/>
<stop offset="1" stop-color="#F3F0F5" stop-opacity="0"/>
</linearGradient>
<linearGradient id="paint3_linear_9_121" x1="1020.24" y1="442.775" x2="654.971" y2="1075.43" gradientUnits="userSpaceOnUse">
<stop stop-color="#F6F3F7"/>
<stop offset="1" stop-color="#F3F0F5" stop-opacity="0"/>
</linearGradient>
<linearGradient id="paint4_linear_9_121" x1="2076.24" y1="469.775" x2="1710.97" y2="1102.43" gradientUnits="userSpaceOnUse">
<stop stop-color="#F6F3F7"/>
<stop offset="1" stop-color="#F3F0F5" stop-opacity="0"/>
</linearGradient>
<linearGradient id="paint5_linear_9_121" x1="874.237" y1="-103.225" x2="508.971" y2="529.434" gradientUnits="userSpaceOnUse">
<stop stop-color="#F6F3F7"/>
<stop offset="1" stop-color="#F3F0F5" stop-opacity="0"/>
</linearGradient>
<clipPath id="clip0_9_121">
<rect width="1920" height="1080" fill="white"/>
</clipPath>
</defs>
</svg>
